<svg xmlns="http://www.w3.org/2000/svg" width="344" height="397" viewBox="0 0 344 397">
<g>

<path d="M 199.67 365.33 C198.83,364.50 198.78,257.74 199.61,255.57 C199.95,254.69 207.94,249.20 217.36,243.37 C226.79,237.54 235.32,232.04 236.32,231.16 C237.96,229.72 249.00,208.42 249.00,206.70 C249.00,205.50 244.58,205.92 234.36,208.11 C228.94,209.28 222.59,210.63 220.25,211.11 C217.91,211.60 214.09,212.42 211.75,212.93 C209.41,213.43 203.68,214.68 199.00,215.70 L 190.50 217.55 L 189.32 227.53 C188.67,233.01 187.47,245.82 186.64,256.00 C185.82,266.17 184.84,275.29 184.47,276.25 C183.89,277.73 182.44,278.00 174.93,278.00 C167.51,278.00 165.92,277.72 165.14,276.25 C164.15,274.37 162.20,251.35 161.99,239.00 C161.94,235.78 161.70,231.12 161.43,227.42 L 161.58 229.07 C162.18,235.36 162.92,241.18 163.24,242.00 C163.56,242.82 164.38,250.78 165.06,259.67 C166.09,272.96 166.60,275.92 167.91,276.24 C168.78,276.46 172.68,276.45 176.57,276.22 L 183.65 275.79 L 184.84 262.15 C185.49,254.64 186.47,244.00 187.02,238.50 C187.56,233.00 188.01,226.56 188.01,224.18 C188.00,219.07 189.42,216.00 191.79,216.00 C192.73,216.00 197.32,215.12 202.00,214.03 C221.59,209.50 241.81,205.13 246.25,204.47 C249.95,203.93 250.99,204.07 250.94,205.14 C250.90,205.89 248.06,212.12 244.63,219.00 L 238.39 231.50 L 222.95 241.29 C214.45,246.67 206.84,251.36 206.04,251.72 C205.24,252.08 203.78,253.06 202.79,253.91 C201.11,255.35 201.00,258.76 201.00,309.72 C201.00,339.58 201.34,363.99 201.75,363.99 C202.16,363.98 204.07,361.76 206.00,359.06 C207.93,356.37 215.71,346.24 223.31,336.56 L 237.11 318.96 L 236.00 307.73 C235.39,301.55 234.45,291.77 233.92,286.00 L 232.95 275.50 L 272.10 237.46 L 271.05 219.98 C270.47,210.37 269.74,198.00 269.44,192.50 C268.65,178.35 268.71,178.52 263.77,177.12 C261.42,176.45 258.60,175.50 257.50,175.01 C256.40,174.51 246.50,171.14 235.50,167.52 C224.50,163.90 214.60,160.53 213.50,160.04 C212.40,159.55 203.10,156.35 192.82,152.93 L 174.14 146.71 L 167.82 149.30 C164.35,150.72 159.93,152.34 158.00,152.89 C147.58,155.88 118.98,165.53 115.79,167.13 C113.75,168.16 111.27,169.00 110.29,169.00 C109.56,169.00 105.44,170.25 100.41,171.92 C106.13,169.92 110.89,167.89 111.30,167.25 C111.74,166.56 113.31,166.00 114.79,166.00 C118.11,166.00 154.12,154.03 155.50,152.47 C156.63,151.18 172.25,145.98 174.82,146.03 C175.74,146.05 181.68,147.86 188.00,150.05 C194.32,152.24 207.60,156.73 217.50,160.04 C227.40,163.35 236.40,166.46 237.50,166.95 C238.60,167.43 240.40,168.05 241.50,168.31 C243.60,168.82 261.05,174.67 264.50,176.03 C265.60,176.46 267.25,177.06 268.17,177.35 C269.51,177.77 269.94,179.55 270.29,186.19 C270.53,190.76 271.29,204.39 271.98,216.48 L 273.22 238.46 L 265.14 245.98 C260.70,250.12 251.89,258.43 245.55,264.45 L 234.03 275.40 L 234.52 280.45 C234.80,283.23 235.69,291.67 236.51,299.20 C236.64,300.44 236.77,301.60 236.89,302.69 C237.89,311.64 238.34,315.70 237.20,319.24 C236.12,322.60 233.61,325.50 228.77,331.69 C223.70,338.18 218.99,344.17 218.31,345.00 C217.63,345.83 213.65,350.89 209.48,356.25 C202.06,365.76 201.04,366.71 199.67,365.33 ZM 180.85 26.47 C189.17,27.30 194.46,29.67 198.96,34.45 L 201.31 36.96 L 198.65 53.23 C197.19,62.18 196.00,70.75 196.00,72.28 C196.00,75.74 193.99,76.60 189.18,75.21 C182.90,73.41 179.88,72.61 176.92,72.48 C183.13,72.26 188.71,72.72 189.54,74.06 C189.86,74.58 190.97,75.00 192.01,75.00 C193.38,75.00 194.05,74.10 194.41,71.75 C194.69,69.96 195.16,66.93 195.45,65.00 C195.75,63.08 196.48,58.58 197.08,55.00 L 197.15 54.58 C199.31,41.61 199.81,38.62 198.66,36.55 C198.30,35.91 197.79,35.36 197.12,34.62 C195.68,33.04 191.80,30.46 188.50,28.88 C186.18,27.76 183.57,26.96 180.85,26.47 ZM 160.91 222.01 C160.56,219.15 160.06,217.81 158.05,216.92 L 160.50 217.64 ZM 170.95 72.88 C170.45,72.95 169.92,73.02 169.35,73.10 C165.03,73.72 160.55,74.82 159.38,75.55 C157.86,76.50 157.03,76.58 156.21,75.81 C157.03,76.58 157.86,76.50 159.38,75.53 C161.30,74.31 165.90,73.39 170.95,72.88 ZM 81.84 179.38 C81.15,180.49 80.68,182.41 80.30,186.12 C80.42,184.63 80.53,183.54 80.62,182.99 C80.88,181.34 81.00,180.30 81.84,179.38 ZM 163.97 27.70 C164.11,27.64 164.25,27.59 164.40,27.54 C166.46,26.77 168.19,26.34 170.43,26.17 C168.18,26.44 166.02,26.94 164.03,27.67 C164.01,27.68 163.99,27.69 163.97,27.70 ZM 93.48 174.29 C90.71,175.26 87.99,176.25 85.66,177.14 C87.45,176.39 89.96,175.50 93.48,174.29 ZM 154.31 33.14 C151.79,35.02 150.00,36.84 150.01,37.83 C150.00,36.83 151.78,35.02 154.31,33.14 Z" fill="rgb(90,93,94)" data-index="1" style="opacity: 1;"></path>
<path d="M 166.90 275.00 L 175.00 275.00 L 175.00 147.77 L 172.25 148.27 C171.22,148.46 168.77,149.16 166.01,150.02 C166.63,149.78 167.24,149.54 167.82,149.30 L 174.14 146.71 L 192.82 152.93 C203.10,156.35 212.40,159.55 213.50,160.04 C214.60,160.53 224.50,163.90 235.50,167.52 C246.50,171.14 256.40,174.51 257.50,175.01 C258.60,175.50 261.42,176.45 263.77,177.12 C268.71,178.52 268.65,178.35 269.44,192.50 C269.74,198.00 270.47,210.37 271.05,219.98 L 272.10 237.46 L 232.95 275.50 L 233.92 286.00 C234.45,291.77 235.39,301.55 236.00,307.73 L 237.11 318.96 L 223.31 336.56 C215.71,346.24 207.93,356.37 206.00,359.06 C204.07,361.76 202.16,363.98 201.75,363.99 C201.34,363.99 201.00,339.58 201.00,309.72 C201.00,258.76 201.11,255.35 202.79,253.91 C203.78,253.06 205.24,252.08 206.04,251.72 C206.84,251.36 214.45,246.67 222.95,241.29 L 238.39 231.50 L 244.63 219.00 C248.06,212.12 250.90,205.89 250.94,205.14 C250.99,204.07 249.95,203.93 246.25,204.47 C241.81,205.13 221.59,209.50 202.00,214.03 C197.32,215.12 192.73,216.00 191.79,216.00 C189.42,216.00 188.00,219.07 188.01,224.18 C188.01,226.56 187.56,233.00 187.02,238.50 C186.47,244.00 185.49,254.64 184.84,262.15 L 183.65 275.79 L 176.57 276.22 C172.68,276.45 168.78,276.46 167.91,276.24 C167.51,276.14 167.19,275.80 166.90,275.00 ZM 169.81 108.60 C179.26,108.47 190.09,109.11 195.50,110.42 C199.35,111.35 203.62,112.36 205.00,112.65 C206.38,112.94 212.68,115.67 219.00,118.71 C229.53,123.78 231.31,125.06 240.06,133.87 C247.62,141.49 250.36,145.06 253.19,151.00 C257.14,159.28 258.60,164.51 257.20,165.38 C256.70,165.69 254.98,165.54 253.39,165.05 C247.48,163.23 208.43,149.91 206.50,149.06 C205.40,148.57 199.32,146.52 193.00,144.49 C186.68,142.47 180.72,140.40 179.76,139.90 C176.77,138.35 173.08,138.89 159.82,143.27 C171.01,139.52 174.00,138.12 174.42,136.55 C174.72,135.42 174.98,128.82 174.99,121.88 L 175.00 109.26 L 170.93 108.72 C170.57,108.67 170.20,108.63 169.81,108.60 ZM 156.13 75.73 C155.51,75.11 154.99,73.00 154.98,71.05 C154.98,69.28 154.05,62.63 152.87,55.67 C153.97,61.46 155.12,66.96 155.80,69.32 L 157.48 75.13 L 160.88 74.49 C162.76,74.14 164.93,73.21 165.72,72.43 C166.50,71.64 168.91,71.00 171.07,71.00 L 175.00 71.00 L 175.00 26.11 C176.02,26.15 177.14,26.20 178.40,26.28 C179.24,26.33 180.06,26.39 180.85,26.47 C183.57,26.96 186.18,27.76 188.50,28.88 C191.80,30.46 195.68,33.04 197.12,34.62 C197.79,35.36 198.30,35.91 198.66,36.55 C199.81,38.62 199.31,41.61 197.15,54.58 L 197.08 55.00 C196.48,58.58 195.75,63.08 195.45,65.00 C195.16,66.93 194.69,69.96 194.41,71.75 C194.05,74.10 193.38,75.00 192.01,75.00 C190.97,75.00 189.86,74.58 189.54,74.06 C188.71,72.72 183.13,72.26 176.92,72.48 C175.14,72.40 173.38,72.56 170.95,72.88 C165.90,73.39 161.30,74.31 159.38,75.53 C157.91,76.47 157.09,76.57 156.29,75.88 C156.27,75.86 156.24,75.84 156.21,75.81 C156.19,75.79 156.16,75.76 156.13,75.73 ZM 244.56 308.75 C244.36,308.06 243.67,302.10 243.04,295.50 C242.41,288.90 241.67,282.44 241.40,281.15 C241.00,279.24 242.71,276.98 250.64,268.90 C256.00,263.46 260.97,259.00 261.69,259.00 C262.71,259.00 263.00,262.24 263.00,273.75 C262.99,286.90 262.77,288.87 260.92,291.89 C259.78,293.76 258.30,295.84 257.63,296.51 C256.95,297.19 254.17,300.50 251.45,303.87 C246.40,310.12 245.22,310.95 244.56,308.75 ZM 174.07 102.04 L 172.97 102.00 L 173.91 102.00 L 174.51 98.75 C174.84,96.96 174.98,92.12 174.81,88.00 L 174.50 80.50 L 170.78 80.19 C168.37,79.99 165.20,80.74 162.62,81.84 L 162.64 81.83 C169.27,78.90 180.82,79.01 187.94,82.07 C190.72,83.27 193.00,84.67 193.00,85.18 C193.00,85.70 192.50,89.35 191.90,93.31 C190.86,100.06 189.58,103.27 188.13,102.79 C187.78,102.68 181.46,102.34 174.07,102.04 ZM 84.72 244.43 L 94.17 253.72 C103.54,262.95 111.59,270.40 112.04,270.27 C113.17,269.96 118.00,275.83 118.00,277.51 C118.00,278.26 117.53,280.11 116.95,281.62 C115.84,284.55 113.48,304.30 112.82,314.08 C113.04,310.66 113.47,305.96 114.04,300.93 C114.33,298.32 114.62,296.00 114.87,293.92 C115.90,285.56 116.45,281.13 115.20,277.28 C113.48,272.00 108.37,267.81 96.46,256.04 ZM 81.07 181.29 L 80.70 192.20 C80.45,199.51 79.77,209.32 79.19,214.00 C78.85,216.79 78.46,220.43 78.14,223.76 C78.42,219.24 78.73,213.54 79.00,207.78 C79.40,199.18 79.91,190.72 80.30,186.12 C80.52,183.98 80.77,182.43 81.07,181.29 ZM 126.14 209.63 C132.91,211.08 139.65,212.15 141.78,212.09 C144.75,212.02 146.23,212.44 146.63,213.49 C146.87,214.11 147.63,214.66 148.48,214.89 C145.17,214.30 137.99,212.65 132.00,211.09 C130.09,210.59 128.12,210.10 126.14,209.63 ZM 92.37 165.53 C91.96,164.45 93.34,160.07 95.30,155.36 C93.49,160.41 93.62,163.78 95.75,164.21 C96.71,164.40 99.30,163.92 101.50,163.13 C102.00,162.95 102.59,162.74 103.27,162.50 C99.54,163.88 97.31,164.82 95.77,165.62 C93.29,166.90 92.90,166.89 92.37,165.53 ZM 140.25 249.06 L 149.00 254.47 L 140.25 249.08 C113.24,232.43 111.88,231.43 109.68,226.63 C109.58,226.42 109.48,226.21 109.39,226.00 C112.73,232.30 116.86,234.60 140.25,249.06 ZM 144.03 113.02 C147.51,111.84 151.17,110.78 155.00,109.85 C156.55,109.47 158.72,109.18 161.27,108.97 C156.07,109.65 150.05,111.06 144.03,113.02 ZM 98.71 148.08 C99.58,146.42 100.45,144.95 101.24,143.85 C105.72,137.54 110.87,132.09 116.78,127.42 C109.36,133.43 102.92,140.71 98.71,148.08 ZM 162.17 82.04 C159.78,83.13 158.00,84.52 158.01,85.69 C158.01,85.72 158.01,85.74 158.01,85.76 L 157.80 83.98 ZM 163.97 27.70 C163.99,27.69 164.01,27.68 164.03,27.67 C165.36,27.18 166.77,26.80 168.23,26.51 C165.06,27.30 161.26,28.90 157.95,30.72 C159.92,29.53 162.02,28.46 163.97,27.70 ZM 161.24 225.17 L 161.63 229.11 C162.16,234.42 162.78,239.56 163.15,241.67 C162.79,240.16 162.12,234.81 161.58,229.07 L 161.43 227.42 C161.36,226.61 161.30,225.86 161.24,225.17 ZM 103.03 205.23 C104.93,205.26 108.33,205.81 113.93,206.97 C109.16,206.03 105.18,205.39 103.03,205.23 ZM 158.72 91.75 C159.20,94.86 159.81,98.27 160.25,100.03 L 159.93 98.83 C159.60,97.60 159.10,94.65 158.72,91.75 ZM 77.38 233.34 L 77.12 236.91 L 76.92 236.71 ZM 157.41 144.07 C156.94,144.22 156.45,144.39 155.96,144.56 C149.30,146.80 140.01,149.93 132.39,152.50 C141.67,149.35 150.99,146.20 157.41,144.07 ZM 149.18 215.01 C149.24,215.01 149.30,215.01 149.36,215.02 C150.23,215.02 152.08,215.36 153.99,215.83 C152.67,215.58 151.09,215.32 149.18,215.01 ZM 149.74 155.42 C145.67,156.76 141.18,158.23 137.00,159.59 L 136.87 159.63 C141.29,158.15 145.80,156.67 149.74,155.42 ZM 101.87 208.75 C101.30,207.27 101.00,206.33 101.00,206.01 C101.00,205.83 101.06,205.68 101.20,205.57 C101.05,206.03 101.22,206.95 101.87,208.75 ZM 164.45 252.35 C164.66,254.64 164.88,257.17 165.09,259.75 L 165.60 266.11 C165.43,264.29 165.26,262.16 165.06,259.67 C164.87,257.11 164.66,254.61 164.45,252.35 ZM 160.61 101.18 C160.69,101.30 160.99,101.43 161.46,101.53 L 160.64 101.50 L 160.42 100.66 C160.49,100.91 160.56,101.09 160.61,101.18 ZM 160.91 222.01 L 160.66 219.29 L 161.01 222.83 C160.98,222.54 160.95,222.27 160.91,222.01 ZM 93.55 174.27 C90.77,175.24 88.02,176.24 85.66,177.14 C87.99,176.25 90.71,175.26 93.48,174.29 L 93.48 174.29 Z" fill="rgb(188,192,196)" data-index="2" style="opacity: 1; visibility: visible; fill: rgb(255, 255, 255);"></path>
<path d="M 143.48 358.90 C141.29,356.10 136.35,349.82 132.50,344.94 C119.72,328.74 113.51,320.73 112.79,319.51 C111.91,318.04 115.50,285.45 116.95,281.62 C117.53,280.11 118.00,278.26 118.00,277.51 C118.00,275.83 113.17,269.96 112.04,270.27 C111.59,270.40 103.54,262.95 94.17,253.72 L 77.12 236.95 L 77.63 229.72 C77.91,225.75 78.62,218.68 79.19,214.00 C79.77,209.32 80.45,199.51 80.70,192.20 L 81.16 178.89 L 83.83 177.84 C92.45,174.45 108.77,169.00 110.29,169.00 C111.27,169.00 113.75,168.16 115.79,167.13 C117.83,166.11 127.38,162.71 137.00,159.59 C146.62,156.46 157.88,152.75 162.00,151.34 C166.12,149.93 170.74,148.55 172.25,148.27 L 175.00 147.77 L 175.00 211.39 L 175.00 275.00 L 170.65 275.00 L 166.31 275.00 L 165.09 259.75 C164.42,251.36 163.62,243.60 163.32,242.50 C163.01,241.40 162.25,235.37 161.63,229.11 L 160.50 217.71 L 156.00 216.37 C153.52,215.63 150.54,215.02 149.36,215.02 C148.18,215.01 146.95,214.32 146.63,213.49 C146.23,212.44 144.75,212.02 141.78,212.09 C139.43,212.15 131.43,210.84 124.00,209.17 C106.00,205.12 101.00,204.43 101.00,206.01 C101.00,207.07 104.28,214.87 109.68,226.63 C111.88,231.43 113.24,232.43 140.25,249.08 L 149.00 254.47 L 149.10 303.48 C149.22,358.74 149.22,359.84 149.09,362.25 C148.94,365.06 147.72,364.33 143.48,358.90 ZM 97.29 301.80 C87.39,289.58 88.00,291.36 88.00,274.78 C88.00,263.50 88.30,260.00 89.27,260.00 C89.97,260.00 94.70,264.18 99.78,269.28 L 109.03 278.57 L 107.94 289.03 C106.33,304.43 105.63,308.29 104.35,308.72 C103.72,308.93 100.55,305.81 97.29,301.80 ZM 95.75 164.21 C93.25,163.70 93.51,159.17 96.41,152.61 C102.58,138.66 117.66,124.13 133.18,117.18 C146.52,111.21 162.61,107.60 170.93,108.72 L 175.00 109.26 L 174.99 121.88 C174.98,128.82 174.72,135.42 174.42,136.55 C173.98,138.19 170.72,139.65 158.18,143.81 C142.99,148.85 109.65,160.21 101.50,163.13 C99.30,163.92 96.71,164.40 95.75,164.21 ZM 160.61 101.18 C160.01,100.21 158.02,88.34 158.01,85.69 C158.00,83.22 165.94,79.79 170.78,80.19 L 174.50 80.50 L 174.81 88.00 C174.98,92.12 174.84,96.96 174.51,98.75 L 173.91 102.00 L 167.51 102.00 C164.00,102.00 160.89,101.63 160.61,101.18 ZM 155.80 69.32 C154.20,63.79 150.00,40.87 150.00,37.67 C150.00,34.07 165.06,26.00 171.78,26.00 L 175.00 26.00 L 175.00 48.50 L 175.00 71.00 L 171.07 71.00 C168.91,71.00 166.50,71.64 165.72,72.43 C164.93,73.21 162.76,74.14 160.88,74.49 L 157.48 75.13 L 155.80 69.32 Z" fill="rgb(252,252,252)" data-index="3" style="opacity: 1; visibility: visible; fill: rgb(255, 255, 255);"></path>
</g>
</svg>